<svg width="28" height="28" viewBox="0 0 28 28" fill="none" xmlns="http://www.w3.org/2000/svg">
<path d="M14.105 26.21C20.7369 26.21 26.2121 20.7273 26.2121 14.105C26.2121 7.47312 20.7273 2 14.0954 2C7.47523 2 2 7.47312 2 14.105C2 20.7273 7.48484 26.21 14.105 26.21ZM14.105 23.8255C8.71085 23.8255 4.39412 19.4991 4.39412 14.105C4.39412 8.71085 8.70124 4.38452 14.0954 4.38452C19.4895 4.38452 23.8276 8.71085 23.8276 14.105C23.8276 19.4991 19.4991 23.8255 14.105 23.8255Z" fill="#FF3B30"/>
<path d="M14.0976 16.0541C14.7222 16.0541 15.0946 15.6997 15.1127 15.0228L15.2948 9.32256C15.317 8.64264 14.7977 8.15093 14.0859 8.15093C13.3645 8.15093 12.8643 8.63303 12.8866 9.31295L13.0495 15.027C13.0696 15.6901 13.442 16.0541 14.0976 16.0541ZM14.0976 19.9365C14.8394 19.9365 15.4591 19.3911 15.4591 18.6523C15.4591 17.9157 14.849 17.3661 14.0976 17.3661C13.3366 17.3661 12.7244 17.9232 12.7244 18.6523C12.7244 19.3815 13.3483 19.9365 14.0976 19.9365Z" fill="#FF3B30"/>
</svg>
