<svg width="28" height="28" viewBox="0 0 28 28" fill="none" xmlns="http://www.w3.org/2000/svg">
<path d="M14.105 26.21C20.7369 26.21 26.2121 20.7273 26.2121 14.105C26.2121 7.47312 20.7273 2 14.0954 2C7.47523 2 2 7.47312 2 14.105C2 20.7273 7.48484 26.21 14.105 26.21Z" fill="#3B82F6"/>
<path d="M12.7988 19.8903C12.3582 19.8903 11.9963 19.6988 11.6684 19.2739L8.7966 15.7805C8.58707 15.5124 8.47949 15.2419 8.47949 14.945C8.47949 14.348 8.95292 13.8638 9.54776 13.8638C9.91925 13.8638 10.2003 13.9883 10.5017 14.375L12.7604 17.2428L17.6061 9.48431C17.8604 9.08423 18.1925 8.87354 18.552 8.87354C19.1373 8.87354 19.6747 9.28415 19.6747 9.89821C19.6747 10.1687 19.5329 10.4551 19.3691 10.7244L13.8866 19.2655C13.6173 19.6754 13.2373 19.8903 12.7988 19.8903Z" fill="white"/>
</svg>
