<svg width="28" height="28" viewBox="0 0 28 28" fill="none" xmlns="http://www.w3.org/2000/svg">
<path d="M14.105 26.21C20.7369 26.21 26.2121 20.7273 26.2121 14.105C26.2121 7.47312 20.7273 2 14.0954 2C7.47523 2 2 7.47312 2 14.105C2 20.7273 7.48484 26.21 14.105 26.21ZM14.105 23.8255C8.71085 23.8255 4.39412 19.4991 4.39412 14.105C4.39412 8.71085 8.70124 4.38452 14.0954 4.38452C19.4895 4.38452 23.8276 8.71085 23.8276 14.105C23.8276 19.4991 19.4991 23.8255 14.105 23.8255Z" fill="#3B82F6"/>
<path d="M12.8372 19.6757C13.2577 19.6757 13.6238 19.4671 13.8729 19.0806L19.1145 10.8932C19.2624 10.6398 19.4042 10.3673 19.4042 10.1031C19.4042 9.51669 18.8848 9.12622 18.3336 9.12622C17.99 9.12622 17.6717 9.3306 17.4237 9.71685L12.7967 17.1503L10.6189 14.373C10.3313 14.0022 10.0545 13.8874 9.70113 13.8874C9.13605 13.8874 8.68066 14.346 8.68066 14.9207C8.68066 15.2038 8.79035 15.4584 8.98394 15.7127L11.7547 19.0891C12.0687 19.4885 12.4125 19.6757 12.8372 19.6757Z" fill="#1D77FF"/>
</svg>
